<mxfile>
    <diagram id="k7ow1dBdbA-1RvV3ZMFT" name="Page-1">
        <mxGraphModel dx="-151" dy="830" grid="0" gridSize="10" guides="1" tooltips="1" connect="1" arrows="1" fold="1" page="1" pageScale="1" pageWidth="827" pageHeight="1169" math="0" shadow="0">
            <root>
                <mxCell id="0"/>
                <mxCell id="1" parent="0"/>
                <mxCell id="LKUsYHRYgJHmpgNFY8rc-46" value="&lt;h1&gt;Example&lt;/h1&gt;&lt;p&gt;This is a example project. You can test and copy the group of diagram&lt;/p&gt;" style="text;html=1;strokeColor=#6F0000;fillColor=#a20025;spacing=5;spacingTop=-20;whiteSpace=wrap;overflow=hidden;rounded=0;fontColor=#ffffff;" parent="1" vertex="1">
                    <mxGeometry x="1435" y="35" width="190" height="98" as="geometry"/>
                </mxCell>
                <mxCell id="LKUsYHRYgJHmpgNFY8rc-47" value="" style="group" parent="1" vertex="1" connectable="0">
                    <mxGeometry x="935" y="35" width="450" height="593" as="geometry"/>
                </mxCell>
                <mxCell id="LKUsYHRYgJHmpgNFY8rc-1" value="sections" style="swimlane;fontStyle=1;align=center;verticalAlign=top;childLayout=stackLayout;horizontal=1;startSize=26;horizontalStack=0;resizeParent=1;resizeParentMax=0;resizeLast=0;collapsible=1;marginBottom=0;" parent="LKUsYHRYgJHmpgNFY8rc-47" vertex="1">
                    <mxGeometry x="287" width="160" height="120" as="geometry"/>
                </mxCell>
                <mxCell id="LKUsYHRYgJHmpgNFY8rc-2" value="+ id : id" style="text;strokeColor=none;fillColor=none;align=left;verticalAlign=top;spacingLeft=4;spacingRight=4;overflow=hidden;rotatable=0;points=[[0,0.5],[1,0.5]];portConstraint=eastwest;" parent="LKUsYHRYgJHmpgNFY8rc-1" vertex="1">
                    <mxGeometry y="26" width="160" height="26" as="geometry"/>
                </mxCell>
                <mxCell id="LKUsYHRYgJHmpgNFY8rc-3" value="" style="line;strokeWidth=1;fillColor=none;align=left;verticalAlign=middle;spacingTop=-1;spacingLeft=3;spacingRight=3;rotatable=0;labelPosition=right;points=[];portConstraint=eastwest;" parent="LKUsYHRYgJHmpgNFY8rc-1" vertex="1">
                    <mxGeometry y="52" width="160" height="8" as="geometry"/>
                </mxCell>
                <mxCell id="LKUsYHRYgJHmpgNFY8rc-4" value="+ name : string" style="text;strokeColor=none;fillColor=none;align=left;verticalAlign=top;spacingLeft=4;spacingRight=4;overflow=hidden;rotatable=0;points=[[0,0.5],[1,0.5]];portConstraint=eastwest;" parent="LKUsYHRYgJHmpgNFY8rc-1" vertex="1">
                    <mxGeometry y="60" width="160" height="26" as="geometry"/>
                </mxCell>
                <mxCell id="LKUsYHRYgJHmpgNFY8rc-5" value="" style="line;strokeWidth=1;fillColor=none;align=left;verticalAlign=middle;spacingTop=-1;spacingLeft=3;spacingRight=3;rotatable=0;labelPosition=right;points=[];portConstraint=eastwest;" parent="LKUsYHRYgJHmpgNFY8rc-1" vertex="1">
                    <mxGeometry y="86" width="160" height="8" as="geometry"/>
                </mxCell>
                <mxCell id="LKUsYHRYgJHmpgNFY8rc-6" value="+ jojo : string" style="text;strokeColor=none;fillColor=none;align=left;verticalAlign=top;spacingLeft=4;spacingRight=4;overflow=hidden;rotatable=0;points=[[0,0.5],[1,0.5]];portConstraint=eastwest;" parent="LKUsYHRYgJHmpgNFY8rc-1" vertex="1">
                    <mxGeometry y="94" width="160" height="26" as="geometry"/>
                </mxCell>
                <mxCell id="LKUsYHRYgJHmpgNFY8rc-7" style="edgeStyle=orthogonalEdgeStyle;rounded=0;orthogonalLoop=1;jettySize=auto;html=1;entryX=0;entryY=0.5;entryDx=0;entryDy=0;endArrow=none;endFill=0;" parent="LKUsYHRYgJHmpgNFY8rc-47" source="LKUsYHRYgJHmpgNFY8rc-27" target="LKUsYHRYgJHmpgNFY8rc-2" edge="1">
                    <mxGeometry relative="1" as="geometry"/>
                </mxCell>
                <mxCell id="LKUsYHRYgJHmpgNFY8rc-18" value="languages" style="swimlane;fontStyle=1;align=center;verticalAlign=top;childLayout=stackLayout;horizontal=1;startSize=26;horizontalStack=0;resizeParent=1;resizeParentMax=0;resizeLast=0;collapsible=1;marginBottom=0;" parent="LKUsYHRYgJHmpgNFY8rc-47" vertex="1">
                    <mxGeometry x="290" y="402" width="160" height="86" as="geometry"/>
                </mxCell>
                <mxCell id="LKUsYHRYgJHmpgNFY8rc-19" value="+ id : id" style="text;strokeColor=none;fillColor=none;align=left;verticalAlign=top;spacingLeft=4;spacingRight=4;overflow=hidden;rotatable=0;points=[[0,0.5],[1,0.5]];portConstraint=eastwest;" parent="LKUsYHRYgJHmpgNFY8rc-18" vertex="1">
                    <mxGeometry y="26" width="160" height="26" as="geometry"/>
                </mxCell>
                <mxCell id="LKUsYHRYgJHmpgNFY8rc-20" value="" style="line;strokeWidth=1;fillColor=none;align=left;verticalAlign=middle;spacingTop=-1;spacingLeft=3;spacingRight=3;rotatable=0;labelPosition=right;points=[];portConstraint=eastwest;" parent="LKUsYHRYgJHmpgNFY8rc-18" vertex="1">
                    <mxGeometry y="52" width="160" height="8" as="geometry"/>
                </mxCell>
                <mxCell id="LKUsYHRYgJHmpgNFY8rc-21" value="+ name : string" style="text;strokeColor=none;fillColor=none;align=left;verticalAlign=top;spacingLeft=4;spacingRight=4;overflow=hidden;rotatable=0;points=[[0,0.5],[1,0.5]];portConstraint=eastwest;" parent="LKUsYHRYgJHmpgNFY8rc-18" vertex="1">
                    <mxGeometry y="60" width="160" height="26" as="geometry"/>
                </mxCell>
                <mxCell id="LKUsYHRYgJHmpgNFY8rc-22" value="codes" style="swimlane;fontStyle=1;align=center;verticalAlign=top;childLayout=stackLayout;horizontal=1;startSize=26;horizontalStack=0;resizeParent=1;resizeParentMax=0;resizeLast=0;collapsible=1;marginBottom=0;" parent="LKUsYHRYgJHmpgNFY8rc-47" vertex="1">
                    <mxGeometry y="23" width="160" height="290" as="geometry"/>
                </mxCell>
                <mxCell id="LKUsYHRYgJHmpgNFY8rc-23" value="+ id : id" style="text;strokeColor=none;fillColor=none;align=left;verticalAlign=top;spacingLeft=4;spacingRight=4;overflow=hidden;rotatable=0;points=[[0,0.5],[1,0.5]];portConstraint=eastwest;" parent="LKUsYHRYgJHmpgNFY8rc-22" vertex="1">
                    <mxGeometry y="26" width="160" height="26" as="geometry"/>
                </mxCell>
                <mxCell id="LKUsYHRYgJHmpgNFY8rc-24" value="" style="line;strokeWidth=1;fillColor=none;align=left;verticalAlign=middle;spacingTop=-1;spacingLeft=3;spacingRight=3;rotatable=0;labelPosition=right;points=[];portConstraint=eastwest;" parent="LKUsYHRYgJHmpgNFY8rc-22" vertex="1">
                    <mxGeometry y="52" width="160" height="8" as="geometry"/>
                </mxCell>
                <mxCell id="LKUsYHRYgJHmpgNFY8rc-25" value="+ content : text" style="text;strokeColor=none;fillColor=none;align=left;verticalAlign=top;spacingLeft=4;spacingRight=4;overflow=hidden;rotatable=0;points=[[0,0.5],[1,0.5]];portConstraint=eastwest;" parent="LKUsYHRYgJHmpgNFY8rc-22" vertex="1">
                    <mxGeometry y="60" width="160" height="26" as="geometry"/>
                </mxCell>
                <mxCell id="LKUsYHRYgJHmpgNFY8rc-26" value="" style="line;strokeWidth=1;fillColor=none;align=left;verticalAlign=middle;spacingTop=-1;spacingLeft=3;spacingRight=3;rotatable=0;labelPosition=right;points=[];portConstraint=eastwest;" parent="LKUsYHRYgJHmpgNFY8rc-22" vertex="1">
                    <mxGeometry y="86" width="160" height="8" as="geometry"/>
                </mxCell>
                <mxCell id="LKUsYHRYgJHmpgNFY8rc-27" value="+ section_id : index" style="text;strokeColor=none;fillColor=none;align=left;verticalAlign=top;spacingLeft=4;spacingRight=4;overflow=hidden;rotatable=0;points=[[0,0.5],[1,0.5]];portConstraint=eastwest;" parent="LKUsYHRYgJHmpgNFY8rc-22" vertex="1">
                    <mxGeometry y="94" width="160" height="26" as="geometry"/>
                </mxCell>
                <mxCell id="LKUsYHRYgJHmpgNFY8rc-28" value="" style="line;strokeWidth=1;fillColor=none;align=left;verticalAlign=middle;spacingTop=-1;spacingLeft=3;spacingRight=3;rotatable=0;labelPosition=right;points=[];portConstraint=eastwest;" parent="LKUsYHRYgJHmpgNFY8rc-22" vertex="1">
                    <mxGeometry y="120" width="160" height="8" as="geometry"/>
                </mxCell>
                <mxCell id="LKUsYHRYgJHmpgNFY8rc-29" value="+ type_id : index" style="text;strokeColor=none;fillColor=none;align=left;verticalAlign=top;spacingLeft=4;spacingRight=4;overflow=hidden;rotatable=0;points=[[0,0.5],[1,0.5]];portConstraint=eastwest;" parent="LKUsYHRYgJHmpgNFY8rc-22" vertex="1">
                    <mxGeometry y="128" width="160" height="26" as="geometry"/>
                </mxCell>
                <mxCell id="LKUsYHRYgJHmpgNFY8rc-30" value="" style="line;strokeWidth=1;fillColor=none;align=left;verticalAlign=middle;spacingTop=-1;spacingLeft=3;spacingRight=3;rotatable=0;labelPosition=right;points=[];portConstraint=eastwest;" parent="LKUsYHRYgJHmpgNFY8rc-22" vertex="1">
                    <mxGeometry y="154" width="160" height="8" as="geometry"/>
                </mxCell>
                <mxCell id="LKUsYHRYgJHmpgNFY8rc-31" value="+ sub_type_id : index" style="text;strokeColor=none;fillColor=none;align=left;verticalAlign=top;spacingLeft=4;spacingRight=4;overflow=hidden;rotatable=0;points=[[0,0.5],[1,0.5]];portConstraint=eastwest;" parent="LKUsYHRYgJHmpgNFY8rc-22" vertex="1">
                    <mxGeometry y="162" width="160" height="26" as="geometry"/>
                </mxCell>
                <mxCell id="LKUsYHRYgJHmpgNFY8rc-32" value="" style="line;strokeWidth=1;fillColor=none;align=left;verticalAlign=middle;spacingTop=-1;spacingLeft=3;spacingRight=3;rotatable=0;labelPosition=right;points=[];portConstraint=eastwest;" parent="LKUsYHRYgJHmpgNFY8rc-22" vertex="1">
                    <mxGeometry y="188" width="160" height="8" as="geometry"/>
                </mxCell>
                <mxCell id="LKUsYHRYgJHmpgNFY8rc-33" value="+ language_id : index" style="text;strokeColor=none;fillColor=none;align=left;verticalAlign=top;spacingLeft=4;spacingRight=4;overflow=hidden;rotatable=0;points=[[0,0.5],[1,0.5]];portConstraint=eastwest;" parent="LKUsYHRYgJHmpgNFY8rc-22" vertex="1">
                    <mxGeometry y="196" width="160" height="26" as="geometry"/>
                </mxCell>
                <mxCell id="LKUsYHRYgJHmpgNFY8rc-34" value="" style="line;strokeWidth=1;fillColor=none;align=left;verticalAlign=middle;spacingTop=-1;spacingLeft=3;spacingRight=3;rotatable=0;labelPosition=right;points=[];portConstraint=eastwest;" parent="LKUsYHRYgJHmpgNFY8rc-22" vertex="1">
                    <mxGeometry y="222" width="160" height="8" as="geometry"/>
                </mxCell>
                <mxCell id="LKUsYHRYgJHmpgNFY8rc-35" value="+ style_id : index" style="text;strokeColor=none;fillColor=none;align=left;verticalAlign=top;spacingLeft=4;spacingRight=4;overflow=hidden;rotatable=0;points=[[0,0.5],[1,0.5]];portConstraint=eastwest;" parent="LKUsYHRYgJHmpgNFY8rc-22" vertex="1">
                    <mxGeometry y="230" width="160" height="26" as="geometry"/>
                </mxCell>
                <mxCell id="LKUsYHRYgJHmpgNFY8rc-36" value="" style="line;strokeWidth=1;fillColor=none;align=left;verticalAlign=middle;spacingTop=-1;spacingLeft=3;spacingRight=3;rotatable=0;labelPosition=right;points=[];portConstraint=eastwest;" parent="LKUsYHRYgJHmpgNFY8rc-22" vertex="1">
                    <mxGeometry y="256" width="160" height="8" as="geometry"/>
                </mxCell>
                <mxCell id="LKUsYHRYgJHmpgNFY8rc-37" value="+ file_id : Iindex" style="text;strokeColor=none;fillColor=none;align=left;verticalAlign=top;spacingLeft=4;spacingRight=4;overflow=hidden;rotatable=0;points=[[0,0.5],[1,0.5]];portConstraint=eastwest;" parent="LKUsYHRYgJHmpgNFY8rc-22" vertex="1">
                    <mxGeometry y="264" width="160" height="26" as="geometry"/>
                </mxCell>
                <mxCell id="LKUsYHRYgJHmpgNFY8rc-40" style="edgeStyle=orthogonalEdgeStyle;rounded=0;orthogonalLoop=1;jettySize=auto;html=1;entryX=0;entryY=0.5;entryDx=0;entryDy=0;endArrow=none;endFill=0;" parent="LKUsYHRYgJHmpgNFY8rc-47" source="LKUsYHRYgJHmpgNFY8rc-33" target="LKUsYHRYgJHmpgNFY8rc-19" edge="1">
                    <mxGeometry relative="1" as="geometry">
                        <Array as="points">
                            <mxPoint x="190" y="232"/>
                            <mxPoint x="190" y="441"/>
                        </Array>
                    </mxGeometry>
                </mxCell>
                <mxCell id="LKUsYHRYgJHmpgNFY8rc-41" value="styles" style="swimlane;fontStyle=1;align=center;verticalAlign=top;childLayout=stackLayout;horizontal=1;startSize=26;horizontalStack=0;resizeParent=1;resizeParentMax=0;resizeLast=0;collapsible=1;marginBottom=0;" parent="LKUsYHRYgJHmpgNFY8rc-47" vertex="1">
                    <mxGeometry x="290" y="507" width="160" height="86" as="geometry"/>
                </mxCell>
                <mxCell id="LKUsYHRYgJHmpgNFY8rc-42" value="+ id : id" style="text;strokeColor=none;fillColor=none;align=left;verticalAlign=top;spacingLeft=4;spacingRight=4;overflow=hidden;rotatable=0;points=[[0,0.5],[1,0.5]];portConstraint=eastwest;" parent="LKUsYHRYgJHmpgNFY8rc-41" vertex="1">
                    <mxGeometry y="26" width="160" height="26" as="geometry"/>
                </mxCell>
                <mxCell id="LKUsYHRYgJHmpgNFY8rc-43" value="" style="line;strokeWidth=1;fillColor=none;align=left;verticalAlign=middle;spacingTop=-1;spacingLeft=3;spacingRight=3;rotatable=0;labelPosition=right;points=[];portConstraint=eastwest;" parent="LKUsYHRYgJHmpgNFY8rc-41" vertex="1">
                    <mxGeometry y="52" width="160" height="8" as="geometry"/>
                </mxCell>
                <mxCell id="LKUsYHRYgJHmpgNFY8rc-44" value="+ name : string" style="text;strokeColor=none;fillColor=none;align=left;verticalAlign=top;spacingLeft=4;spacingRight=4;overflow=hidden;rotatable=0;points=[[0,0.5],[1,0.5]];portConstraint=eastwest;" parent="LKUsYHRYgJHmpgNFY8rc-41" vertex="1">
                    <mxGeometry y="60" width="160" height="26" as="geometry"/>
                </mxCell>
                <mxCell id="LKUsYHRYgJHmpgNFY8rc-45" style="edgeStyle=orthogonalEdgeStyle;rounded=0;orthogonalLoop=1;jettySize=auto;html=1;endArrow=none;endFill=0;" parent="LKUsYHRYgJHmpgNFY8rc-47" source="LKUsYHRYgJHmpgNFY8rc-35" target="LKUsYHRYgJHmpgNFY8rc-42" edge="1">
                    <mxGeometry relative="1" as="geometry">
                        <Array as="points">
                            <mxPoint x="174" y="266"/>
                            <mxPoint x="174" y="546"/>
                        </Array>
                    </mxGeometry>
                </mxCell>
                <mxCell id="LKUsYHRYgJHmpgNFY8rc-14" value="sub_types" style="swimlane;fontStyle=1;align=center;verticalAlign=top;childLayout=stackLayout;horizontal=1;startSize=26;horizontalStack=0;resizeParent=1;resizeParentMax=0;resizeLast=0;collapsible=1;marginBottom=0;" parent="LKUsYHRYgJHmpgNFY8rc-47" vertex="1">
                    <mxGeometry x="290" y="292" width="160" height="86" as="geometry"/>
                </mxCell>
                <mxCell id="LKUsYHRYgJHmpgNFY8rc-15" value="+ id : id" style="text;strokeColor=none;fillColor=none;align=left;verticalAlign=top;spacingLeft=4;spacingRight=4;overflow=hidden;rotatable=0;points=[[0,0.5],[1,0.5]];portConstraint=eastwest;" parent="LKUsYHRYgJHmpgNFY8rc-14" vertex="1">
                    <mxGeometry y="26" width="160" height="26" as="geometry"/>
                </mxCell>
                <mxCell id="LKUsYHRYgJHmpgNFY8rc-16" value="" style="line;strokeWidth=1;fillColor=none;align=left;verticalAlign=middle;spacingTop=-1;spacingLeft=3;spacingRight=3;rotatable=0;labelPosition=right;points=[];portConstraint=eastwest;" parent="LKUsYHRYgJHmpgNFY8rc-14" vertex="1">
                    <mxGeometry y="52" width="160" height="8" as="geometry"/>
                </mxCell>
                <mxCell id="LKUsYHRYgJHmpgNFY8rc-17" value="+ name : string" style="text;strokeColor=none;fillColor=none;align=left;verticalAlign=top;spacingLeft=4;spacingRight=4;overflow=hidden;rotatable=0;points=[[0,0.5],[1,0.5]];portConstraint=eastwest;" parent="LKUsYHRYgJHmpgNFY8rc-14" vertex="1">
                    <mxGeometry y="60" width="160" height="26" as="geometry"/>
                </mxCell>
                <mxCell id="LKUsYHRYgJHmpgNFY8rc-13" style="edgeStyle=orthogonalEdgeStyle;rounded=0;orthogonalLoop=1;jettySize=auto;html=1;endArrow=none;endFill=0;" parent="LKUsYHRYgJHmpgNFY8rc-47" source="LKUsYHRYgJHmpgNFY8rc-14" target="LKUsYHRYgJHmpgNFY8rc-31" edge="1">
                    <mxGeometry relative="1" as="geometry">
                        <Array as="points">
                            <mxPoint x="206" y="332"/>
                            <mxPoint x="206" y="196"/>
                        </Array>
                    </mxGeometry>
                </mxCell>
                <mxCell id="LKUsYHRYgJHmpgNFY8rc-9" value="types" style="swimlane;fontStyle=1;align=center;verticalAlign=top;childLayout=stackLayout;horizontal=1;startSize=26;horizontalStack=0;resizeParent=1;resizeParentMax=0;resizeLast=0;collapsible=1;marginBottom=0;" parent="LKUsYHRYgJHmpgNFY8rc-47" vertex="1">
                    <mxGeometry x="287" y="163" width="160" height="86" as="geometry"/>
                </mxCell>
                <mxCell id="LKUsYHRYgJHmpgNFY8rc-10" value="+ id : id" style="text;strokeColor=none;fillColor=none;align=left;verticalAlign=top;spacingLeft=4;spacingRight=4;overflow=hidden;rotatable=0;points=[[0,0.5],[1,0.5]];portConstraint=eastwest;" parent="LKUsYHRYgJHmpgNFY8rc-9" vertex="1">
                    <mxGeometry y="26" width="160" height="26" as="geometry"/>
                </mxCell>
                <mxCell id="LKUsYHRYgJHmpgNFY8rc-11" value="" style="line;strokeWidth=1;fillColor=none;align=left;verticalAlign=middle;spacingTop=-1;spacingLeft=3;spacingRight=3;rotatable=0;labelPosition=right;points=[];portConstraint=eastwest;" parent="LKUsYHRYgJHmpgNFY8rc-9" vertex="1">
                    <mxGeometry y="52" width="160" height="8" as="geometry"/>
                </mxCell>
                <mxCell id="LKUsYHRYgJHmpgNFY8rc-12" value="+ name : string" style="text;strokeColor=none;fillColor=none;align=left;verticalAlign=top;spacingLeft=4;spacingRight=4;overflow=hidden;rotatable=0;points=[[0,0.5],[1,0.5]];portConstraint=eastwest;" parent="LKUsYHRYgJHmpgNFY8rc-9" vertex="1">
                    <mxGeometry y="60" width="160" height="26" as="geometry"/>
                </mxCell>
                <mxCell id="LKUsYHRYgJHmpgNFY8rc-8" style="edgeStyle=orthogonalEdgeStyle;rounded=0;orthogonalLoop=1;jettySize=auto;html=1;endArrow=none;endFill=0;" parent="LKUsYHRYgJHmpgNFY8rc-47" source="LKUsYHRYgJHmpgNFY8rc-29" target="LKUsYHRYgJHmpgNFY8rc-10" edge="1">
                    <mxGeometry relative="1" as="geometry"/>
                </mxCell>
                <mxCell id="LKUsYHRYgJHmpgNFY8rc-48" value="&lt;a href=&quot;https://laravel.com/docs/8.x/migrations#column-method-bigIncrements&quot; style=&quot;box-sizing: border-box ; border: 0px solid rgb(231 , 232 , 242) ; color: rgb(255 , 45 , 32) ; position: relative ; transition: all 0.3s ease 0s ; word-break: break-word ; display: block ; font-family: , , , , , &amp;#34;segoe ui&amp;#34; , &amp;#34;roboto&amp;#34; , &amp;#34;helvetica neue&amp;#34; , &amp;#34;arial&amp;#34; , &amp;#34;noto sans&amp;#34; , sans-serif , &amp;#34;apple color emoji&amp;#34; , &amp;#34;segoe ui emoji&amp;#34; , &amp;#34;segoe ui symbol&amp;#34; , &amp;#34;noto color emoji&amp;#34; ; font-size: 16px&quot;&gt;bigIncrements&lt;/a&gt;&lt;a href=&quot;https://laravel.com/docs/8.x/migrations#column-method-bigInteger&quot; style=&quot;box-sizing: border-box ; border: 0px solid rgb(231 , 232 , 242) ; color: rgb(255 , 45 , 32) ; position: relative ; transition: all 0.3s ease 0s ; word-break: break-word ; display: block ; font-family: , , , , , &amp;#34;segoe ui&amp;#34; , &amp;#34;roboto&amp;#34; , &amp;#34;helvetica neue&amp;#34; , &amp;#34;arial&amp;#34; , &amp;#34;noto sans&amp;#34; , sans-serif , &amp;#34;apple color emoji&amp;#34; , &amp;#34;segoe ui emoji&amp;#34; , &amp;#34;segoe ui symbol&amp;#34; , &amp;#34;noto color emoji&amp;#34; ; font-size: 16px&quot;&gt;bigInteger&lt;/a&gt;&lt;a href=&quot;https://laravel.com/docs/8.x/migrations#column-method-binary&quot; style=&quot;box-sizing: border-box ; border: 0px solid rgb(231 , 232 , 242) ; color: rgb(255 , 45 , 32) ; position: relative ; transition: all 0.3s ease 0s ; word-break: break-word ; display: block ; font-family: , , , , , &amp;#34;segoe ui&amp;#34; , &amp;#34;roboto&amp;#34; , &amp;#34;helvetica neue&amp;#34; , &amp;#34;arial&amp;#34; , &amp;#34;noto sans&amp;#34; , sans-serif , &amp;#34;apple color emoji&amp;#34; , &amp;#34;segoe ui emoji&amp;#34; , &amp;#34;segoe ui symbol&amp;#34; , &amp;#34;noto color emoji&amp;#34; ; font-size: 16px&quot;&gt;binary&lt;/a&gt;&lt;a href=&quot;https://laravel.com/docs/8.x/migrations#column-method-boolean&quot; style=&quot;box-sizing: border-box ; border: 0px solid rgb(231 , 232 , 242) ; color: rgb(255 , 45 , 32) ; position: relative ; transition: all 0.3s ease 0s ; word-break: break-word ; display: block ; font-family: , , , , , &amp;#34;segoe ui&amp;#34; , &amp;#34;roboto&amp;#34; , &amp;#34;helvetica neue&amp;#34; , &amp;#34;arial&amp;#34; , &amp;#34;noto sans&amp;#34; , sans-serif , &amp;#34;apple color emoji&amp;#34; , &amp;#34;segoe ui emoji&amp;#34; , &amp;#34;segoe ui symbol&amp;#34; , &amp;#34;noto color emoji&amp;#34; ; font-size: 16px&quot;&gt;boolean&lt;/a&gt;&lt;a href=&quot;https://laravel.com/docs/8.x/migrations#column-method-char&quot; style=&quot;box-sizing: border-box ; border: 0px solid rgb(231 , 232 , 242) ; color: rgb(255 , 45 , 32) ; position: relative ; transition: all 0.3s ease 0s ; word-break: break-word ; display: block ; font-family: , , , , , &amp;#34;segoe ui&amp;#34; , &amp;#34;roboto&amp;#34; , &amp;#34;helvetica neue&amp;#34; , &amp;#34;arial&amp;#34; , &amp;#34;noto sans&amp;#34; , sans-serif , &amp;#34;apple color emoji&amp;#34; , &amp;#34;segoe ui emoji&amp;#34; , &amp;#34;segoe ui symbol&amp;#34; , &amp;#34;noto color emoji&amp;#34; ; font-size: 16px&quot;&gt;char&lt;/a&gt;&lt;a href=&quot;https://laravel.com/docs/8.x/migrations#column-method-dateTimeTz&quot; style=&quot;box-sizing: border-box ; border: 0px solid rgb(231 , 232 , 242) ; color: rgb(255 , 45 , 32) ; position: relative ; transition: all 0.3s ease 0s ; word-break: break-word ; display: block ; font-family: , , , , , &amp;#34;segoe ui&amp;#34; , &amp;#34;roboto&amp;#34; , &amp;#34;helvetica neue&amp;#34; , &amp;#34;arial&amp;#34; , &amp;#34;noto sans&amp;#34; , sans-serif , &amp;#34;apple color emoji&amp;#34; , &amp;#34;segoe ui emoji&amp;#34; , &amp;#34;segoe ui symbol&amp;#34; , &amp;#34;noto color emoji&amp;#34; ; font-size: 16px&quot;&gt;dateTimeTz&lt;/a&gt;&lt;a href=&quot;https://laravel.com/docs/8.x/migrations#column-method-dateTime&quot; style=&quot;box-sizing: border-box ; border: 0px solid rgb(231 , 232 , 242) ; color: rgb(255 , 45 , 32) ; position: relative ; transition: all 0.3s ease 0s ; word-break: break-word ; display: block ; font-family: , , , , , &amp;#34;segoe ui&amp;#34; , &amp;#34;roboto&amp;#34; , &amp;#34;helvetica neue&amp;#34; , &amp;#34;arial&amp;#34; , &amp;#34;noto sans&amp;#34; , sans-serif , &amp;#34;apple color emoji&amp;#34; , &amp;#34;segoe ui emoji&amp;#34; , &amp;#34;segoe ui symbol&amp;#34; , &amp;#34;noto color emoji&amp;#34; ; font-size: 16px&quot;&gt;dateTime&lt;/a&gt;&lt;a href=&quot;https://laravel.com/docs/8.x/migrations#column-method-date&quot; style=&quot;box-sizing: border-box ; border: 0px solid rgb(231 , 232 , 242) ; color: rgb(255 , 45 , 32) ; position: relative ; transition: all 0.3s ease 0s ; word-break: break-word ; display: block ; font-family: , , , , , &amp;#34;segoe ui&amp;#34; , &amp;#34;roboto&amp;#34; , &amp;#34;helvetica neue&amp;#34; , &amp;#34;arial&amp;#34; , &amp;#34;noto sans&amp;#34; , sans-serif , &amp;#34;apple color emoji&amp;#34; , &amp;#34;segoe ui emoji&amp;#34; , &amp;#34;segoe ui symbol&amp;#34; , &amp;#34;noto color emoji&amp;#34; ; font-size: 16px&quot;&gt;date&lt;/a&gt;&lt;a href=&quot;https://laravel.com/docs/8.x/migrations#column-method-decimal&quot; style=&quot;box-sizing: border-box ; border: 0px solid rgb(231 , 232 , 242) ; color: rgb(255 , 45 , 32) ; position: relative ; transition: all 0.3s ease 0s ; word-break: break-word ; display: block ; font-family: , , , , , &amp;#34;segoe ui&amp;#34; , &amp;#34;roboto&amp;#34; , &amp;#34;helvetica neue&amp;#34; , &amp;#34;arial&amp;#34; , &amp;#34;noto sans&amp;#34; , sans-serif , &amp;#34;apple color emoji&amp;#34; , &amp;#34;segoe ui emoji&amp;#34; , &amp;#34;segoe ui symbol&amp;#34; , &amp;#34;noto color emoji&amp;#34; ; font-size: 16px&quot;&gt;decimal&lt;/a&gt;&lt;a href=&quot;https://laravel.com/docs/8.x/migrations#column-method-double&quot; style=&quot;box-sizing: border-box ; border: 0px solid rgb(231 , 232 , 242) ; color: rgb(255 , 45 , 32) ; position: relative ; transition: all 0.3s ease 0s ; word-break: break-word ; display: block ; font-family: , , , , , &amp;#34;segoe ui&amp;#34; , &amp;#34;roboto&amp;#34; , &amp;#34;helvetica neue&amp;#34; , &amp;#34;arial&amp;#34; , &amp;#34;noto sans&amp;#34; , sans-serif , &amp;#34;apple color emoji&amp;#34; , &amp;#34;segoe ui emoji&amp;#34; , &amp;#34;segoe ui symbol&amp;#34; , &amp;#34;noto color emoji&amp;#34; ; font-size: 16px&quot;&gt;double&lt;/a&gt;&lt;a href=&quot;https://laravel.com/docs/8.x/migrations#column-method-enum&quot; style=&quot;box-sizing: border-box ; border: 0px solid rgb(231 , 232 , 242) ; color: rgb(255 , 45 , 32) ; position: relative ; transition: all 0.3s ease 0s ; word-break: break-word ; display: block ; font-family: , , , , , &amp;#34;segoe ui&amp;#34; , &amp;#34;roboto&amp;#34; , &amp;#34;helvetica neue&amp;#34; , &amp;#34;arial&amp;#34; , &amp;#34;noto sans&amp;#34; , sans-serif , &amp;#34;apple color emoji&amp;#34; , &amp;#34;segoe ui emoji&amp;#34; , &amp;#34;segoe ui symbol&amp;#34; , &amp;#34;noto color emoji&amp;#34; ; font-size: 16px&quot;&gt;enum&lt;/a&gt;&lt;a href=&quot;https://laravel.com/docs/8.x/migrations#column-method-float&quot; style=&quot;box-sizing: border-box ; border: 0px solid rgb(231 , 232 , 242) ; color: rgb(255 , 45 , 32) ; position: relative ; transition: all 0.3s ease 0s ; word-break: break-word ; display: block ; font-family: , , , , , &amp;#34;segoe ui&amp;#34; , &amp;#34;roboto&amp;#34; , &amp;#34;helvetica neue&amp;#34; , &amp;#34;arial&amp;#34; , &amp;#34;noto sans&amp;#34; , sans-serif , &amp;#34;apple color emoji&amp;#34; , &amp;#34;segoe ui emoji&amp;#34; , &amp;#34;segoe ui symbol&amp;#34; , &amp;#34;noto color emoji&amp;#34; ; font-size: 16px&quot;&gt;float&lt;/a&gt;&lt;a href=&quot;https://laravel.com/docs/8.x/migrations#column-method-foreignId&quot; style=&quot;box-sizing: border-box ; border: 0px solid rgb(231 , 232 , 242) ; color: rgb(255 , 45 , 32) ; position: relative ; transition: all 0.3s ease 0s ; word-break: break-word ; display: block ; font-family: , , , , , &amp;#34;segoe ui&amp;#34; , &amp;#34;roboto&amp;#34; , &amp;#34;helvetica neue&amp;#34; , &amp;#34;arial&amp;#34; , &amp;#34;noto sans&amp;#34; , sans-serif , &amp;#34;apple color emoji&amp;#34; , &amp;#34;segoe ui emoji&amp;#34; , &amp;#34;segoe ui symbol&amp;#34; , &amp;#34;noto color emoji&amp;#34; ; font-size: 16px&quot;&gt;foreignId&lt;/a&gt;&lt;a href=&quot;https://laravel.com/docs/8.x/migrations#column-method-geometryCollection&quot; style=&quot;box-sizing: border-box ; border: 0px solid rgb(231 , 232 , 242) ; color: rgb(255 , 45 , 32) ; position: relative ; transition: all 0.3s ease 0s ; word-break: break-word ; display: block ; font-family: , , , , , &amp;#34;segoe ui&amp;#34; , &amp;#34;roboto&amp;#34; , &amp;#34;helvetica neue&amp;#34; , &amp;#34;arial&amp;#34; , &amp;#34;noto sans&amp;#34; , sans-serif , &amp;#34;apple color emoji&amp;#34; , &amp;#34;segoe ui emoji&amp;#34; , &amp;#34;segoe ui symbol&amp;#34; , &amp;#34;noto color emoji&amp;#34; ; font-size: 16px&quot;&gt;geometryCollection&lt;/a&gt;&lt;a href=&quot;https://laravel.com/docs/8.x/migrations#column-method-geometry&quot; style=&quot;box-sizing: border-box ; border: 0px solid rgb(231 , 232 , 242) ; color: rgb(255 , 45 , 32) ; position: relative ; transition: all 0.3s ease 0s ; word-break: break-word ; display: block ; font-family: , , , , , &amp;#34;segoe ui&amp;#34; , &amp;#34;roboto&amp;#34; , &amp;#34;helvetica neue&amp;#34; , &amp;#34;arial&amp;#34; , &amp;#34;noto sans&amp;#34; , sans-serif , &amp;#34;apple color emoji&amp;#34; , &amp;#34;segoe ui emoji&amp;#34; , &amp;#34;segoe ui symbol&amp;#34; , &amp;#34;noto color emoji&amp;#34; ; font-size: 16px&quot;&gt;geometry&lt;/a&gt;&lt;a href=&quot;https://laravel.com/docs/8.x/migrations#column-method-id&quot; style=&quot;box-sizing: border-box ; border: 0px solid rgb(231 , 232 , 242) ; color: rgb(255 , 45 , 32) ; position: relative ; transition: all 0.3s ease 0s ; word-break: break-word ; display: block ; font-family: , , , , , &amp;#34;segoe ui&amp;#34; , &amp;#34;roboto&amp;#34; , &amp;#34;helvetica neue&amp;#34; , &amp;#34;arial&amp;#34; , &amp;#34;noto sans&amp;#34; , sans-serif , &amp;#34;apple color emoji&amp;#34; , &amp;#34;segoe ui emoji&amp;#34; , &amp;#34;segoe ui symbol&amp;#34; , &amp;#34;noto color emoji&amp;#34; ; font-size: 16px&quot;&gt;id&lt;/a&gt;&lt;a href=&quot;https://laravel.com/docs/8.x/migrations#column-method-increments&quot; style=&quot;box-sizing: border-box ; border: 0px solid rgb(231 , 232 , 242) ; color: rgb(255 , 45 , 32) ; position: relative ; transition: all 0.3s ease 0s ; word-break: break-word ; display: block ; font-family: , , , , , &amp;#34;segoe ui&amp;#34; , &amp;#34;roboto&amp;#34; , &amp;#34;helvetica neue&amp;#34; , &amp;#34;arial&amp;#34; , &amp;#34;noto sans&amp;#34; , sans-serif , &amp;#34;apple color emoji&amp;#34; , &amp;#34;segoe ui emoji&amp;#34; , &amp;#34;segoe ui symbol&amp;#34; , &amp;#34;noto color emoji&amp;#34; ; font-size: 16px&quot;&gt;increments&lt;/a&gt;&lt;a href=&quot;https://laravel.com/docs/8.x/migrations#column-method-integer&quot; style=&quot;box-sizing: border-box ; border: 0px solid rgb(231 , 232 , 242) ; color: rgb(255 , 45 , 32) ; position: relative ; transition: all 0.3s ease 0s ; word-break: break-word ; display: block ; font-family: , , , , , &amp;#34;segoe ui&amp;#34; , &amp;#34;roboto&amp;#34; , &amp;#34;helvetica neue&amp;#34; , &amp;#34;arial&amp;#34; , &amp;#34;noto sans&amp;#34; , sans-serif , &amp;#34;apple color emoji&amp;#34; , &amp;#34;segoe ui emoji&amp;#34; , &amp;#34;segoe ui symbol&amp;#34; , &amp;#34;noto color emoji&amp;#34; ; font-size: 16px&quot;&gt;integer&lt;/a&gt;&lt;a href=&quot;https://laravel.com/docs/8.x/migrations#column-method-ipAddress&quot; style=&quot;box-sizing: border-box ; border: 0px solid rgb(231 , 232 , 242) ; color: rgb(255 , 45 , 32) ; position: relative ; transition: all 0.3s ease 0s ; word-break: break-word ; display: block ; font-family: , , , , , &amp;#34;segoe ui&amp;#34; , &amp;#34;roboto&amp;#34; , &amp;#34;helvetica neue&amp;#34; , &amp;#34;arial&amp;#34; , &amp;#34;noto sans&amp;#34; , sans-serif , &amp;#34;apple color emoji&amp;#34; , &amp;#34;segoe ui emoji&amp;#34; , &amp;#34;segoe ui symbol&amp;#34; , &amp;#34;noto color emoji&amp;#34; ; font-size: 16px&quot;&gt;ipAddress&lt;/a&gt;&lt;a href=&quot;https://laravel.com/docs/8.x/migrations#column-method-json&quot; style=&quot;box-sizing: border-box ; border: 0px solid rgb(231 , 232 , 242) ; color: rgb(255 , 45 , 32) ; position: relative ; transition: all 0.3s ease 0s ; word-break: break-word ; display: block ; font-family: , , , , , &amp;#34;segoe ui&amp;#34; , &amp;#34;roboto&amp;#34; , &amp;#34;helvetica neue&amp;#34; , &amp;#34;arial&amp;#34; , &amp;#34;noto sans&amp;#34; , sans-serif , &amp;#34;apple color emoji&amp;#34; , &amp;#34;segoe ui emoji&amp;#34; , &amp;#34;segoe ui symbol&amp;#34; , &amp;#34;noto color emoji&amp;#34; ; font-size: 16px&quot;&gt;json&lt;/a&gt;&lt;a href=&quot;https://laravel.com/docs/8.x/migrations#column-method-jsonb&quot; style=&quot;box-sizing: border-box ; border: 0px solid rgb(231 , 232 , 242) ; color: rgb(255 , 45 , 32) ; position: relative ; transition: all 0.3s ease 0s ; word-break: break-word ; display: block ; font-family: , , , , , &amp;#34;segoe ui&amp;#34; , &amp;#34;roboto&amp;#34; , &amp;#34;helvetica neue&amp;#34; , &amp;#34;arial&amp;#34; , &amp;#34;noto sans&amp;#34; , sans-serif , &amp;#34;apple color emoji&amp;#34; , &amp;#34;segoe ui emoji&amp;#34; , &amp;#34;segoe ui symbol&amp;#34; , &amp;#34;noto color emoji&amp;#34; ; font-size: 16px&quot;&gt;jsonb&lt;/a&gt;&lt;a href=&quot;https://laravel.com/docs/8.x/migrations#column-method-lineString&quot; style=&quot;box-sizing: border-box ; border: 0px solid rgb(231 , 232 , 242) ; color: rgb(255 , 45 , 32) ; position: relative ; transition: all 0.3s ease 0s ; word-break: break-word ; display: block ; font-family: , , , , , &amp;#34;segoe ui&amp;#34; , &amp;#34;roboto&amp;#34; , &amp;#34;helvetica neue&amp;#34; , &amp;#34;arial&amp;#34; , &amp;#34;noto sans&amp;#34; , sans-serif , &amp;#34;apple color emoji&amp;#34; , &amp;#34;segoe ui emoji&amp;#34; , &amp;#34;segoe ui symbol&amp;#34; , &amp;#34;noto color emoji&amp;#34; ; font-size: 16px&quot;&gt;lineString&lt;/a&gt;&lt;a href=&quot;https://laravel.com/docs/8.x/migrations#column-method-longText&quot; style=&quot;box-sizing: border-box ; border: 0px solid rgb(231 , 232 , 242) ; color: rgb(255 , 45 , 32) ; position: relative ; transition: all 0.3s ease 0s ; word-break: break-word ; display: block ; font-family: , , , , , &amp;#34;segoe ui&amp;#34; , &amp;#34;roboto&amp;#34; , &amp;#34;helvetica neue&amp;#34; , &amp;#34;arial&amp;#34; , &amp;#34;noto sans&amp;#34; , sans-serif , &amp;#34;apple color emoji&amp;#34; , &amp;#34;segoe ui emoji&amp;#34; , &amp;#34;segoe ui symbol&amp;#34; , &amp;#34;noto color emoji&amp;#34; ; font-size: 16px&quot;&gt;longText&lt;/a&gt;&lt;a href=&quot;https://laravel.com/docs/8.x/migrations#column-method-macAddress&quot; style=&quot;box-sizing: border-box ; border: 0px solid rgb(231 , 232 , 242) ; color: rgb(255 , 45 , 32) ; position: relative ; transition: all 0.3s ease 0s ; word-break: break-word ; display: block ; font-family: , , , , , &amp;#34;segoe ui&amp;#34; , &amp;#34;roboto&amp;#34; , &amp;#34;helvetica neue&amp;#34; , &amp;#34;arial&amp;#34; , &amp;#34;noto sans&amp;#34; , sans-serif , &amp;#34;apple color emoji&amp;#34; , &amp;#34;segoe ui emoji&amp;#34; , &amp;#34;segoe ui symbol&amp;#34; , &amp;#34;noto color emoji&amp;#34; ; font-size: 16px&quot;&gt;macAddress&lt;/a&gt;&lt;a href=&quot;https://laravel.com/docs/8.x/migrations#column-method-mediumIncrements&quot; style=&quot;box-sizing: border-box ; border: 0px solid rgb(231 , 232 , 242) ; color: rgb(255 , 45 , 32) ; position: relative ; transition: all 0.3s ease 0s ; word-break: break-word ; display: block ; font-family: , , , , , &amp;#34;segoe ui&amp;#34; , &amp;#34;roboto&amp;#34; , &amp;#34;helvetica neue&amp;#34; , &amp;#34;arial&amp;#34; , &amp;#34;noto sans&amp;#34; , sans-serif , &amp;#34;apple color emoji&amp;#34; , &amp;#34;segoe ui emoji&amp;#34; , &amp;#34;segoe ui symbol&amp;#34; , &amp;#34;noto color emoji&amp;#34; ; font-size: 16px&quot;&gt;mediumIncrements&lt;/a&gt;&lt;a href=&quot;https://laravel.com/docs/8.x/migrations#column-method-mediumInteger&quot; style=&quot;box-sizing: border-box ; border: 0px solid rgb(231 , 232 , 242) ; color: rgb(255 , 45 , 32) ; position: relative ; transition: all 0.3s ease 0s ; word-break: break-word ; display: block ; font-family: , , , , , &amp;#34;segoe ui&amp;#34; , &amp;#34;roboto&amp;#34; , &amp;#34;helvetica neue&amp;#34; , &amp;#34;arial&amp;#34; , &amp;#34;noto sans&amp;#34; , sans-serif , &amp;#34;apple color emoji&amp;#34; , &amp;#34;segoe ui emoji&amp;#34; , &amp;#34;segoe ui symbol&amp;#34; , &amp;#34;noto color emoji&amp;#34; ; font-size: 16px&quot;&gt;mediumInteger&lt;/a&gt;&lt;a href=&quot;https://laravel.com/docs/8.x/migrations#column-method-mediumText&quot; style=&quot;box-sizing: border-box ; border: 0px solid rgb(231 , 232 , 242) ; color: rgb(255 , 45 , 32) ; position: relative ; transition: all 0.3s ease 0s ; word-break: break-word ; display: block ; font-family: , , , , , &amp;#34;segoe ui&amp;#34; , &amp;#34;roboto&amp;#34; , &amp;#34;helvetica neue&amp;#34; , &amp;#34;arial&amp;#34; , &amp;#34;noto sans&amp;#34; , sans-serif , &amp;#34;apple color emoji&amp;#34; , &amp;#34;segoe ui emoji&amp;#34; , &amp;#34;segoe ui symbol&amp;#34; , &amp;#34;noto color emoji&amp;#34; ; font-size: 16px&quot;&gt;mediumText&lt;/a&gt;&lt;a href=&quot;https://laravel.com/docs/8.x/migrations#column-method-morphs&quot; style=&quot;box-sizing: border-box ; border: 0px solid rgb(231 , 232 , 242) ; color: rgb(255 , 45 , 32) ; position: relative ; transition: all 0.3s ease 0s ; word-break: break-word ; display: block ; font-family: , , , , , &amp;#34;segoe ui&amp;#34; , &amp;#34;roboto&amp;#34; , &amp;#34;helvetica neue&amp;#34; , &amp;#34;arial&amp;#34; , &amp;#34;noto sans&amp;#34; , sans-serif , &amp;#34;apple color emoji&amp;#34; , &amp;#34;segoe ui emoji&amp;#34; , &amp;#34;segoe ui symbol&amp;#34; , &amp;#34;noto color emoji&amp;#34; ; font-size: 16px&quot;&gt;morphs&lt;/a&gt;&lt;a href=&quot;https://laravel.com/docs/8.x/migrations#column-method-multiLineString&quot; style=&quot;box-sizing: border-box ; border: 0px solid rgb(231 , 232 , 242) ; color: rgb(255 , 45 , 32) ; position: relative ; transition: all 0.3s ease 0s ; word-break: break-word ; display: block ; font-family: , , , , , &amp;#34;segoe ui&amp;#34; , &amp;#34;roboto&amp;#34; , &amp;#34;helvetica neue&amp;#34; , &amp;#34;arial&amp;#34; , &amp;#34;noto sans&amp;#34; , sans-serif , &amp;#34;apple color emoji&amp;#34; , &amp;#34;segoe ui emoji&amp;#34; , &amp;#34;segoe ui symbol&amp;#34; , &amp;#34;noto color emoji&amp;#34; ; font-size: 16px&quot;&gt;multiLineString&lt;/a&gt;&lt;a href=&quot;https://laravel.com/docs/8.x/migrations#column-method-multiPoint&quot; style=&quot;box-sizing: border-box ; border: 0px solid rgb(231 , 232 , 242) ; color: rgb(255 , 45 , 32) ; position: relative ; transition: all 0.3s ease 0s ; word-break: break-word ; display: block ; font-family: , , , , , &amp;#34;segoe ui&amp;#34; , &amp;#34;roboto&amp;#34; , &amp;#34;helvetica neue&amp;#34; , &amp;#34;arial&amp;#34; , &amp;#34;noto sans&amp;#34; , sans-serif , &amp;#34;apple color emoji&amp;#34; , &amp;#34;segoe ui emoji&amp;#34; , &amp;#34;segoe ui symbol&amp;#34; , &amp;#34;noto color emoji&amp;#34; ; font-size: 16px&quot;&gt;multiPoint&lt;/a&gt;&lt;a href=&quot;https://laravel.com/docs/8.x/migrations#column-method-multiPolygon&quot; style=&quot;box-sizing: border-box ; border: 0px solid rgb(231 , 232 , 242) ; color: rgb(255 , 45 , 32) ; position: relative ; transition: all 0.3s ease 0s ; word-break: break-word ; display: block ; font-family: , , , , , &amp;#34;segoe ui&amp;#34; , &amp;#34;roboto&amp;#34; , &amp;#34;helvetica neue&amp;#34; , &amp;#34;arial&amp;#34; , &amp;#34;noto sans&amp;#34; , sans-serif , &amp;#34;apple color emoji&amp;#34; , &amp;#34;segoe ui emoji&amp;#34; , &amp;#34;segoe ui symbol&amp;#34; , &amp;#34;noto color emoji&amp;#34; ; font-size: 16px&quot;&gt;multiPolygon&lt;/a&gt;&lt;a href=&quot;https://laravel.com/docs/8.x/migrations#column-method-nullableMorphs&quot; style=&quot;box-sizing: border-box ; border: 0px solid rgb(231 , 232 , 242) ; color: rgb(255 , 45 , 32) ; position: relative ; transition: all 0.3s ease 0s ; word-break: break-word ; display: block ; font-family: , , , , , &amp;#34;segoe ui&amp;#34; , &amp;#34;roboto&amp;#34; , &amp;#34;helvetica neue&amp;#34; , &amp;#34;arial&amp;#34; , &amp;#34;noto sans&amp;#34; , sans-serif , &amp;#34;apple color emoji&amp;#34; , &amp;#34;segoe ui emoji&amp;#34; , &amp;#34;segoe ui symbol&amp;#34; , &amp;#34;noto color emoji&amp;#34; ; font-size: 16px&quot;&gt;nullableMorphs&lt;/a&gt;&lt;a href=&quot;https://laravel.com/docs/8.x/migrations#column-method-nullableTimestamps&quot; style=&quot;box-sizing: border-box ; border: 0px solid rgb(231 , 232 , 242) ; color: rgb(255 , 45 , 32) ; position: relative ; transition: all 0.3s ease 0s ; word-break: break-word ; display: block ; font-family: , , , , , &amp;#34;segoe ui&amp;#34; , &amp;#34;roboto&amp;#34; , &amp;#34;helvetica neue&amp;#34; , &amp;#34;arial&amp;#34; , &amp;#34;noto sans&amp;#34; , sans-serif , &amp;#34;apple color emoji&amp;#34; , &amp;#34;segoe ui emoji&amp;#34; , &amp;#34;segoe ui symbol&amp;#34; , &amp;#34;noto color emoji&amp;#34; ; font-size: 16px&quot;&gt;nullableTimestamps&lt;/a&gt;&lt;a href=&quot;https://laravel.com/docs/8.x/migrations#column-method-nullableUuidMorphs&quot; style=&quot;box-sizing: border-box ; border: 0px solid rgb(231 , 232 , 242) ; color: rgb(255 , 45 , 32) ; position: relative ; transition: all 0.3s ease 0s ; word-break: break-word ; display: block ; font-family: , , , , , &amp;#34;segoe ui&amp;#34; , &amp;#34;roboto&amp;#34; , &amp;#34;helvetica neue&amp;#34; , &amp;#34;arial&amp;#34; , &amp;#34;noto sans&amp;#34; , sans-serif , &amp;#34;apple color emoji&amp;#34; , &amp;#34;segoe ui emoji&amp;#34; , &amp;#34;segoe ui symbol&amp;#34; , &amp;#34;noto color emoji&amp;#34; ; font-size: 16px&quot;&gt;nullableUuidMorphs&lt;/a&gt;&lt;a href=&quot;https://laravel.com/docs/8.x/migrations#column-method-point&quot; style=&quot;box-sizing: border-box ; border: 0px solid rgb(231 , 232 , 242) ; color: rgb(255 , 45 , 32) ; position: relative ; transition: all 0.3s ease 0s ; word-break: break-word ; display: block ; font-family: , , , , , &amp;#34;segoe ui&amp;#34; , &amp;#34;roboto&amp;#34; , &amp;#34;helvetica neue&amp;#34; , &amp;#34;arial&amp;#34; , &amp;#34;noto sans&amp;#34; , sans-serif , &amp;#34;apple color emoji&amp;#34; , &amp;#34;segoe ui emoji&amp;#34; , &amp;#34;segoe ui symbol&amp;#34; , &amp;#34;noto color emoji&amp;#34; ; font-size: 16px&quot;&gt;point&lt;/a&gt;&lt;a href=&quot;https://laravel.com/docs/8.x/migrations#column-method-polygon&quot; style=&quot;box-sizing: border-box ; border: 0px solid rgb(231 , 232 , 242) ; color: rgb(255 , 45 , 32) ; position: relative ; transition: all 0.3s ease 0s ; word-break: break-word ; display: block ; font-family: , , , , , &amp;#34;segoe ui&amp;#34; , &amp;#34;roboto&amp;#34; , &amp;#34;helvetica neue&amp;#34; , &amp;#34;arial&amp;#34; , &amp;#34;noto sans&amp;#34; , sans-serif , &amp;#34;apple color emoji&amp;#34; , &amp;#34;segoe ui emoji&amp;#34; , &amp;#34;segoe ui symbol&amp;#34; , &amp;#34;noto color emoji&amp;#34; ; font-size: 16px&quot;&gt;polygon&lt;/a&gt;&lt;a href=&quot;https://laravel.com/docs/8.x/migrations#column-method-rememberToken&quot; style=&quot;box-sizing: border-box ; border: 0px solid rgb(231 , 232 , 242) ; color: rgb(255 , 45 , 32) ; position: relative ; transition: all 0.3s ease 0s ; word-break: break-word ; display: block ; font-family: , , , , , &amp;#34;segoe ui&amp;#34; , &amp;#34;roboto&amp;#34; , &amp;#34;helvetica neue&amp;#34; , &amp;#34;arial&amp;#34; , &amp;#34;noto sans&amp;#34; , sans-serif , &amp;#34;apple color emoji&amp;#34; , &amp;#34;segoe ui emoji&amp;#34; , &amp;#34;segoe ui symbol&amp;#34; , &amp;#34;noto color emoji&amp;#34; ; font-size: 16px&quot;&gt;rememberToken&lt;/a&gt;&lt;a href=&quot;https://laravel.com/docs/8.x/migrations#column-method-set&quot; style=&quot;box-sizing: border-box ; border: 0px solid rgb(231 , 232 , 242) ; color: rgb(255 , 45 , 32) ; position: relative ; transition: all 0.3s ease 0s ; word-break: break-word ; display: block ; font-family: , , , , , &amp;#34;segoe ui&amp;#34; , &amp;#34;roboto&amp;#34; , &amp;#34;helvetica neue&amp;#34; , &amp;#34;arial&amp;#34; , &amp;#34;noto sans&amp;#34; , sans-serif , &amp;#34;apple color emoji&amp;#34; , &amp;#34;segoe ui emoji&amp;#34; , &amp;#34;segoe ui symbol&amp;#34; , &amp;#34;noto color emoji&amp;#34; ; font-size: 16px&quot;&gt;set&lt;/a&gt;&lt;a href=&quot;https://laravel.com/docs/8.x/migrations#column-method-smallIncrements&quot; style=&quot;box-sizing: border-box ; border: 0px solid rgb(231 , 232 , 242) ; color: rgb(255 , 45 , 32) ; position: relative ; transition: all 0.3s ease 0s ; word-break: break-word ; display: block ; font-family: , , , , , &amp;#34;segoe ui&amp;#34; , &amp;#34;roboto&amp;#34; , &amp;#34;helvetica neue&amp;#34; , &amp;#34;arial&amp;#34; , &amp;#34;noto sans&amp;#34; , sans-serif , &amp;#34;apple color emoji&amp;#34; , &amp;#34;segoe ui emoji&amp;#34; , &amp;#34;segoe ui symbol&amp;#34; , &amp;#34;noto color emoji&amp;#34; ; font-size: 16px&quot;&gt;smallIncrements&lt;/a&gt;&lt;a href=&quot;https://laravel.com/docs/8.x/migrations#column-method-smallInteger&quot; style=&quot;box-sizing: border-box ; border: 0px solid rgb(231 , 232 , 242) ; color: rgb(255 , 45 , 32) ; position: relative ; transition: all 0.3s ease 0s ; word-break: break-word ; display: block ; font-family: , , , , , &amp;#34;segoe ui&amp;#34; , &amp;#34;roboto&amp;#34; , &amp;#34;helvetica neue&amp;#34; , &amp;#34;arial&amp;#34; , &amp;#34;noto sans&amp;#34; , sans-serif , &amp;#34;apple color emoji&amp;#34; , &amp;#34;segoe ui emoji&amp;#34; , &amp;#34;segoe ui symbol&amp;#34; , &amp;#34;noto color emoji&amp;#34; ; font-size: 16px&quot;&gt;smallInteger&lt;/a&gt;&lt;a href=&quot;https://laravel.com/docs/8.x/migrations#column-method-softDeletesTz&quot; style=&quot;box-sizing: border-box ; border: 0px solid rgb(231 , 232 , 242) ; color: rgb(255 , 45 , 32) ; position: relative ; transition: all 0.3s ease 0s ; word-break: break-word ; display: block ; font-family: , , , , , &amp;#34;segoe ui&amp;#34; , &amp;#34;roboto&amp;#34; , &amp;#34;helvetica neue&amp;#34; , &amp;#34;arial&amp;#34; , &amp;#34;noto sans&amp;#34; , sans-serif , &amp;#34;apple color emoji&amp;#34; , &amp;#34;segoe ui emoji&amp;#34; , &amp;#34;segoe ui symbol&amp;#34; , &amp;#34;noto color emoji&amp;#34; ; font-size: 16px&quot;&gt;softDeletesTz&lt;/a&gt;&lt;a href=&quot;https://laravel.com/docs/8.x/migrations#column-method-softDeletes&quot; style=&quot;box-sizing: border-box ; border: 0px solid rgb(231 , 232 , 242) ; color: rgb(255 , 45 , 32) ; position: relative ; transition: all 0.3s ease 0s ; word-break: break-word ; display: block ; font-family: , , , , , &amp;#34;segoe ui&amp;#34; , &amp;#34;roboto&amp;#34; , &amp;#34;helvetica neue&amp;#34; , &amp;#34;arial&amp;#34; , &amp;#34;noto sans&amp;#34; , sans-serif , &amp;#34;apple color emoji&amp;#34; , &amp;#34;segoe ui emoji&amp;#34; , &amp;#34;segoe ui symbol&amp;#34; , &amp;#34;noto color emoji&amp;#34; ; font-size: 16px&quot;&gt;softDeletes&lt;/a&gt;&lt;a href=&quot;https://laravel.com/docs/8.x/migrations#column-method-string&quot; style=&quot;box-sizing: border-box ; border: 0px solid rgb(231 , 232 , 242) ; color: rgb(255 , 45 , 32) ; position: relative ; transition: all 0.3s ease 0s ; word-break: break-word ; display: block ; font-family: , , , , , &amp;#34;segoe ui&amp;#34; , &amp;#34;roboto&amp;#34; , &amp;#34;helvetica neue&amp;#34; , &amp;#34;arial&amp;#34; , &amp;#34;noto sans&amp;#34; , sans-serif , &amp;#34;apple color emoji&amp;#34; , &amp;#34;segoe ui emoji&amp;#34; , &amp;#34;segoe ui symbol&amp;#34; , &amp;#34;noto color emoji&amp;#34; ; font-size: 16px&quot;&gt;string&lt;/a&gt;&lt;a href=&quot;https://laravel.com/docs/8.x/migrations#column-method-text&quot; style=&quot;box-sizing: border-box ; border: 0px solid rgb(231 , 232 , 242) ; color: rgb(255 , 45 , 32) ; position: relative ; transition: all 0.3s ease 0s ; word-break: break-word ; display: block ; font-family: , , , , , &amp;#34;segoe ui&amp;#34; , &amp;#34;roboto&amp;#34; , &amp;#34;helvetica neue&amp;#34; , &amp;#34;arial&amp;#34; , &amp;#34;noto sans&amp;#34; , sans-serif , &amp;#34;apple color emoji&amp;#34; , &amp;#34;segoe ui emoji&amp;#34; , &amp;#34;segoe ui symbol&amp;#34; , &amp;#34;noto color emoji&amp;#34; ; font-size: 16px&quot;&gt;text&lt;/a&gt;&lt;a href=&quot;https://laravel.com/docs/8.x/migrations#column-method-timeTz&quot; style=&quot;box-sizing: border-box ; border: 0px solid rgb(231 , 232 , 242) ; color: rgb(255 , 45 , 32) ; position: relative ; transition: all 0.3s ease 0s ; word-break: break-word ; display: block ; font-family: , , , , , &amp;#34;segoe ui&amp;#34; , &amp;#34;roboto&amp;#34; , &amp;#34;helvetica neue&amp;#34; , &amp;#34;arial&amp;#34; , &amp;#34;noto sans&amp;#34; , sans-serif , &amp;#34;apple color emoji&amp;#34; , &amp;#34;segoe ui emoji&amp;#34; , &amp;#34;segoe ui symbol&amp;#34; , &amp;#34;noto color emoji&amp;#34; ; font-size: 16px&quot;&gt;timeTz&lt;/a&gt;&lt;a href=&quot;https://laravel.com/docs/8.x/migrations#column-method-time&quot; style=&quot;box-sizing: border-box ; border: 0px solid rgb(231 , 232 , 242) ; color: rgb(255 , 45 , 32) ; position: relative ; transition: all 0.3s ease 0s ; word-break: break-word ; display: block ; font-family: , , , , , &amp;#34;segoe ui&amp;#34; , &amp;#34;roboto&amp;#34; , &amp;#34;helvetica neue&amp;#34; , &amp;#34;arial&amp;#34; , &amp;#34;noto sans&amp;#34; , sans-serif , &amp;#34;apple color emoji&amp;#34; , &amp;#34;segoe ui emoji&amp;#34; , &amp;#34;segoe ui symbol&amp;#34; , &amp;#34;noto color emoji&amp;#34; ; font-size: 16px&quot;&gt;time&lt;/a&gt;&lt;a href=&quot;https://laravel.com/docs/8.x/migrations#column-method-timestampTz&quot; style=&quot;box-sizing: border-box ; border: 0px solid rgb(231 , 232 , 242) ; color: rgb(255 , 45 , 32) ; position: relative ; transition: all 0.3s ease 0s ; word-break: break-word ; display: block ; font-family: , , , , , &amp;#34;segoe ui&amp;#34; , &amp;#34;roboto&amp;#34; , &amp;#34;helvetica neue&amp;#34; , &amp;#34;arial&amp;#34; , &amp;#34;noto sans&amp;#34; , sans-serif , &amp;#34;apple color emoji&amp;#34; , &amp;#34;segoe ui emoji&amp;#34; , &amp;#34;segoe ui symbol&amp;#34; , &amp;#34;noto color emoji&amp;#34; ; font-size: 16px&quot;&gt;timestampTz&lt;/a&gt;&lt;a href=&quot;https://laravel.com/docs/8.x/migrations#column-method-timestamp&quot; style=&quot;box-sizing: border-box ; border: 0px solid rgb(231 , 232 , 242) ; color: rgb(255 , 45 , 32) ; position: relative ; transition: all 0.3s ease 0s ; word-break: break-word ; display: block ; font-family: , , , , , &amp;#34;segoe ui&amp;#34; , &amp;#34;roboto&amp;#34; , &amp;#34;helvetica neue&amp;#34; , &amp;#34;arial&amp;#34; , &amp;#34;noto sans&amp;#34; , sans-serif , &amp;#34;apple color emoji&amp;#34; , &amp;#34;segoe ui emoji&amp;#34; , &amp;#34;segoe ui symbol&amp;#34; , &amp;#34;noto color emoji&amp;#34; ; font-size: 16px&quot;&gt;timestamp&lt;/a&gt;&lt;a href=&quot;https://laravel.com/docs/8.x/migrations#column-method-timestampsTz&quot; style=&quot;box-sizing: border-box ; border: 0px solid rgb(231 , 232 , 242) ; color: rgb(255 , 45 , 32) ; position: relative ; transition: all 0.3s ease 0s ; word-break: break-word ; display: block ; font-family: , , , , , &amp;#34;segoe ui&amp;#34; , &amp;#34;roboto&amp;#34; , &amp;#34;helvetica neue&amp;#34; , &amp;#34;arial&amp;#34; , &amp;#34;noto sans&amp;#34; , sans-serif , &amp;#34;apple color emoji&amp;#34; , &amp;#34;segoe ui emoji&amp;#34; , &amp;#34;segoe ui symbol&amp;#34; , &amp;#34;noto color emoji&amp;#34; ; font-size: 16px&quot;&gt;timestampsTz&lt;/a&gt;&lt;a href=&quot;https://laravel.com/docs/8.x/migrations#column-method-timestamps&quot; style=&quot;box-sizing: border-box ; border: 0px solid rgb(231 , 232 , 242) ; color: rgb(255 , 45 , 32) ; position: relative ; transition: all 0.3s ease 0s ; word-break: break-word ; display: block ; font-family: , , , , , &amp;#34;segoe ui&amp;#34; , &amp;#34;roboto&amp;#34; , &amp;#34;helvetica neue&amp;#34; , &amp;#34;arial&amp;#34; , &amp;#34;noto sans&amp;#34; , sans-serif , &amp;#34;apple color emoji&amp;#34; , &amp;#34;segoe ui emoji&amp;#34; , &amp;#34;segoe ui symbol&amp;#34; , &amp;#34;noto color emoji&amp;#34; ; font-size: 16px&quot;&gt;timestamps&lt;/a&gt;&lt;a href=&quot;https://laravel.com/docs/8.x/migrations#column-method-tinyIncrements&quot; style=&quot;box-sizing: border-box ; border: 0px solid rgb(231 , 232 , 242) ; color: rgb(255 , 45 , 32) ; position: relative ; transition: all 0.3s ease 0s ; word-break: break-word ; display: block ; font-family: , , , , , &amp;#34;segoe ui&amp;#34; , &amp;#34;roboto&amp;#34; , &amp;#34;helvetica neue&amp;#34; , &amp;#34;arial&amp;#34; , &amp;#34;noto sans&amp;#34; , sans-serif , &amp;#34;apple color emoji&amp;#34; , &amp;#34;segoe ui emoji&amp;#34; , &amp;#34;segoe ui symbol&amp;#34; , &amp;#34;noto color emoji&amp;#34; ; font-size: 16px&quot;&gt;tinyIncrements&lt;/a&gt;&lt;a href=&quot;https://laravel.com/docs/8.x/migrations#column-method-tinyInteger&quot; style=&quot;box-sizing: border-box ; border: 0px solid rgb(231 , 232 , 242) ; color: rgb(255 , 45 , 32) ; position: relative ; transition: all 0.3s ease 0s ; word-break: break-word ; display: block ; font-family: , , , , , &amp;#34;segoe ui&amp;#34; , &amp;#34;roboto&amp;#34; , &amp;#34;helvetica neue&amp;#34; , &amp;#34;arial&amp;#34; , &amp;#34;noto sans&amp;#34; , sans-serif , &amp;#34;apple color emoji&amp;#34; , &amp;#34;segoe ui emoji&amp;#34; , &amp;#34;segoe ui symbol&amp;#34; , &amp;#34;noto color emoji&amp;#34; ; font-size: 16px&quot;&gt;tinyInteger&lt;/a&gt;&lt;a href=&quot;https://laravel.com/docs/8.x/migrations#column-method-unsignedBigInteger&quot; style=&quot;box-sizing: border-box ; border: 0px solid rgb(231 , 232 , 242) ; color: rgb(255 , 45 , 32) ; position: relative ; transition: all 0.3s ease 0s ; word-break: break-word ; display: block ; font-family: , , , , , &amp;#34;segoe ui&amp;#34; , &amp;#34;roboto&amp;#34; , &amp;#34;helvetica neue&amp;#34; , &amp;#34;arial&amp;#34; , &amp;#34;noto sans&amp;#34; , sans-serif , &amp;#34;apple color emoji&amp;#34; , &amp;#34;segoe ui emoji&amp;#34; , &amp;#34;segoe ui symbol&amp;#34; , &amp;#34;noto color emoji&amp;#34; ; font-size: 16px&quot;&gt;unsignedBigInteger&lt;/a&gt;&lt;a href=&quot;https://laravel.com/docs/8.x/migrations#column-method-unsignedDecimal&quot; style=&quot;box-sizing: border-box ; border: 0px solid rgb(231 , 232 , 242) ; color: rgb(255 , 45 , 32) ; position: relative ; transition: all 0.3s ease 0s ; word-break: break-word ; display: block ; font-family: , , , , , &amp;#34;segoe ui&amp;#34; , &amp;#34;roboto&amp;#34; , &amp;#34;helvetica neue&amp;#34; , &amp;#34;arial&amp;#34; , &amp;#34;noto sans&amp;#34; , sans-serif , &amp;#34;apple color emoji&amp;#34; , &amp;#34;segoe ui emoji&amp;#34; , &amp;#34;segoe ui symbol&amp;#34; , &amp;#34;noto color emoji&amp;#34; ; font-size: 16px&quot;&gt;unsignedDecimal&lt;/a&gt;&lt;a href=&quot;https://laravel.com/docs/8.x/migrations#column-method-unsignedInteger&quot; style=&quot;box-sizing: border-box ; border: 0px solid rgb(231 , 232 , 242) ; color: rgb(255 , 45 , 32) ; position: relative ; transition: all 0.3s ease 0s ; word-break: break-word ; display: block ; font-family: , , , , , &amp;#34;segoe ui&amp;#34; , &amp;#34;roboto&amp;#34; , &amp;#34;helvetica neue&amp;#34; , &amp;#34;arial&amp;#34; , &amp;#34;noto sans&amp;#34; , sans-serif , &amp;#34;apple color emoji&amp;#34; , &amp;#34;segoe ui emoji&amp;#34; , &amp;#34;segoe ui symbol&amp;#34; , &amp;#34;noto color emoji&amp;#34; ; font-size: 16px&quot;&gt;unsignedInteger&lt;/a&gt;&lt;a href=&quot;https://laravel.com/docs/8.x/migrations#column-method-unsignedMediumInteger&quot; style=&quot;box-sizing: border-box ; border: 0px solid rgb(231 , 232 , 242) ; color: rgb(255 , 45 , 32) ; position: relative ; transition: all 0.3s ease 0s ; word-break: break-word ; display: block ; font-family: , , , , , &amp;#34;segoe ui&amp;#34; , &amp;#34;roboto&amp;#34; , &amp;#34;helvetica neue&amp;#34; , &amp;#34;arial&amp;#34; , &amp;#34;noto sans&amp;#34; , sans-serif , &amp;#34;apple color emoji&amp;#34; , &amp;#34;segoe ui emoji&amp;#34; , &amp;#34;segoe ui symbol&amp;#34; , &amp;#34;noto color emoji&amp;#34; ; font-size: 16px&quot;&gt;unsignedMediumInteger&lt;/a&gt;&lt;a href=&quot;https://laravel.com/docs/8.x/migrations#column-method-unsignedSmallInteger&quot; style=&quot;box-sizing: border-box ; border: 0px solid rgb(231 , 232 , 242) ; color: rgb(255 , 45 , 32) ; position: relative ; transition: all 0.3s ease 0s ; word-break: break-word ; display: block ; font-family: , , , , , &amp;#34;segoe ui&amp;#34; , &amp;#34;roboto&amp;#34; , &amp;#34;helvetica neue&amp;#34; , &amp;#34;arial&amp;#34; , &amp;#34;noto sans&amp;#34; , sans-serif , &amp;#34;apple color emoji&amp;#34; , &amp;#34;segoe ui emoji&amp;#34; , &amp;#34;segoe ui symbol&amp;#34; , &amp;#34;noto color emoji&amp;#34; ; font-size: 16px&quot;&gt;unsignedSmallInteger&lt;/a&gt;&lt;a href=&quot;https://laravel.com/docs/8.x/migrations#column-method-unsignedTinyInteger&quot; style=&quot;box-sizing: border-box ; border: 0px solid rgb(231 , 232 , 242) ; color: rgb(255 , 45 , 32) ; position: relative ; transition: all 0.3s ease 0s ; word-break: break-word ; display: block ; font-family: , , , , , &amp;#34;segoe ui&amp;#34; , &amp;#34;roboto&amp;#34; , &amp;#34;helvetica neue&amp;#34; , &amp;#34;arial&amp;#34; , &amp;#34;noto sans&amp;#34; , sans-serif , &amp;#34;apple color emoji&amp;#34; , &amp;#34;segoe ui emoji&amp;#34; , &amp;#34;segoe ui symbol&amp;#34; , &amp;#34;noto color emoji&amp;#34; ; font-size: 16px&quot;&gt;unsignedTinyInteger&lt;/a&gt;&lt;a href=&quot;https://laravel.com/docs/8.x/migrations#column-method-uuidMorphs&quot; style=&quot;box-sizing: border-box ; border: 0px solid rgb(231 , 232 , 242) ; color: rgb(255 , 45 , 32) ; position: relative ; transition: all 0.3s ease 0s ; word-break: break-word ; display: block ; font-family: , , , , , &amp;#34;segoe ui&amp;#34; , &amp;#34;roboto&amp;#34; , &amp;#34;helvetica neue&amp;#34; , &amp;#34;arial&amp;#34; , &amp;#34;noto sans&amp;#34; , sans-serif , &amp;#34;apple color emoji&amp;#34; , &amp;#34;segoe ui emoji&amp;#34; , &amp;#34;segoe ui symbol&amp;#34; , &amp;#34;noto color emoji&amp;#34; ; font-size: 16px&quot;&gt;uuidMorphs&lt;/a&gt;&lt;a href=&quot;https://laravel.com/docs/8.x/migrations#column-method-uuid&quot; style=&quot;box-sizing: border-box ; border: 0px solid rgb(231 , 232 , 242) ; color: rgb(255 , 45 , 32) ; position: relative ; transition: all 0.3s ease 0s ; word-break: break-word ; display: block ; font-family: , , , , , &amp;#34;segoe ui&amp;#34; , &amp;#34;roboto&amp;#34; , &amp;#34;helvetica neue&amp;#34; , &amp;#34;arial&amp;#34; , &amp;#34;noto sans&amp;#34; , sans-serif , &amp;#34;apple color emoji&amp;#34; , &amp;#34;segoe ui emoji&amp;#34; , &amp;#34;segoe ui symbol&amp;#34; , &amp;#34;noto color emoji&amp;#34; ; font-size: 16px&quot;&gt;uuid&lt;/a&gt;&lt;a href=&quot;https://laravel.com/docs/8.x/migrations#column-method-year&quot; style=&quot;box-sizing: border-box ; border: 0px solid rgb(231 , 232 , 242) ; color: rgb(255 , 45 , 32) ; position: relative ; transition: all 0.3s ease 0s ; word-break: break-word ; display: block ; font-family: , , , , , &amp;#34;segoe ui&amp;#34; , &amp;#34;roboto&amp;#34; , &amp;#34;helvetica neue&amp;#34; , &amp;#34;arial&amp;#34; , &amp;#34;noto sans&amp;#34; , sans-serif , &amp;#34;apple color emoji&amp;#34; , &amp;#34;segoe ui emoji&amp;#34; , &amp;#34;segoe ui symbol&amp;#34; , &amp;#34;noto color emoji&amp;#34; ; font-size: 16px&quot;&gt;year&lt;/a&gt;" style="text;html=1;strokeColor=none;fillColor=none;align=center;verticalAlign=middle;whiteSpace=wrap;rounded=0;" parent="1" vertex="1">
                    <mxGeometry x="1654" y="3" width="317" height="1248" as="geometry"/>
                </mxCell>
            </root>
        </mxGraphModel>
    </diagram>
</mxfile>